<svg width="802" height="530" viewBox="0 0 802 530" fill="none" xmlns="http://www.w3.org/2000/svg">
<path d="M156.617 517.5C171.431 510.31 183.201 499.628 191.913 485.472C200.643 471.285 204.981 453.975 204.981 433.591V298.254V297.254H203.981H148.748H147.748V298.254V433.914C147.748 447.316 144.346 457.481 137.684 464.56C131.032 471.627 121.423 475.227 108.696 475.227C95.9668 475.227 86.4744 471.626 80.0419 464.571C73.5881 457.493 70.29 447.324 70.29 433.914V298.254V297.254H69.29H14.057H13.057V298.254V433.591C13.057 453.967 17.176 471.374 25.4643 485.77L25.4677 485.776C33.7439 499.932 44.9736 510.621 59.1473 517.817L59.1554 517.821L59.1637 517.825C73.5286 524.79 89.7232 528.261 107.727 528.261C125.735 528.261 142.038 524.68 156.617 517.5ZM156.617 517.5C156.616 517.501 156.615 517.501 156.614 517.502L156.177 516.602M156.617 517.5C156.617 517.5 156.618 517.499 156.619 517.499L156.177 516.602M156.177 516.602C141.75 523.708 125.6 527.261 107.727 527.261C89.8543 527.261 73.812 523.816 59.6 516.925C45.6033 509.819 34.5136 499.268 26.331 485.271C18.1483 471.059 14.057 453.832 14.057 433.591V299.254V298.254H15.057H68.29H69.29V299.254V433.914C69.29 447.48 72.6276 457.924 79.303 465.245C85.9783 472.566 95.776 476.227 108.696 476.227C121.616 476.227 131.521 472.566 138.412 465.245C145.303 457.924 148.748 447.48 148.748 433.914V299.254V298.254H149.748H202.981H203.981V299.254V433.591C203.981 453.832 199.674 470.951 191.061 484.948C182.448 498.945 170.82 509.496 156.177 516.602ZM179.141 2.254V1.254H178.141H2.75195H1.75195V2.254V46.505V47.505H2.75195H61.83V229V230H62.83H118.063H119.063V229V47.505H178.141H179.141V46.505V2.254ZM248.82 230H249.537L249.767 229.321L263.103 189.948H346.295L359.631 229.321L359.861 230H360.578H419.041H420.466L419.981 228.66L337.939 1.91376L337.701 1.254H336.999H273.045H272.343L272.105 1.91376L190.063 228.66L189.578 230H191.003H248.82ZM572.595 186.364V185.364H571.595H500.243V2.254V1.254H499.243H444.01H443.01V2.254V229V230H444.01H571.595H572.595V229V186.364ZM728.605 229.606L728.905 230H729.401H796.908H798.969L797.694 228.381L707.096 113.367L794.462 2.87423L795.744 1.254H793.678H728.755H728.259L727.959 1.64905L654.173 98.7687V2.254V1.254H653.173H597.94H596.94V2.254V229V230H597.94H653.173H654.173V229V131.834L728.605 229.606ZM247.774 495.876L247.782 495.887C255.866 506.592 266.566 514.665 279.855 520.111C293.129 525.552 308.119 528.261 324.808 528.261C341.941 528.261 356.851 525.116 369.506 518.788C382.138 512.473 391.762 503.957 398.332 493.229C405.11 482.514 408.496 470.593 408.496 457.493C408.496 443.761 405.115 432.439 398.274 423.611C391.511 414.886 383.428 408.218 374.025 403.625C364.925 399.075 353.036 394.322 338.372 389.362L338.359 389.358C323.735 384.626 313.054 380.239 306.262 376.206C299.64 372.274 296.415 366.877 296.415 359.947C296.415 353.487 298.385 348.74 302.196 345.531L302.208 345.521L302.219 345.511C306.089 342.048 311.217 340.275 317.702 340.275C325.259 340.275 331.364 342.369 336.103 346.49L336.113 346.498L336.122 346.506C340.83 350.395 343.419 355.826 343.836 362.913L343.891 363.854H344.834H404.589H405.641L405.588 362.804C404.498 341.23 396.199 324.365 380.656 312.324C365.147 300.093 344.777 294.024 319.64 294.024C294.929 294.024 274.776 300.095 259.27 312.323C243.714 324.375 235.952 341.153 235.952 362.531C235.952 376.898 239.328 388.649 246.168 397.695C252.93 406.64 261.018 413.421 270.428 418.017C279.751 422.569 291.754 427.109 306.425 431.64L306.435 431.642C316.541 434.653 324.247 437.331 329.573 439.674L329.58 439.677L329.587 439.68C335.087 442.007 339.603 444.955 343.158 448.51L343.168 448.52L343.179 448.53C346.844 451.991 348.679 456.353 348.679 461.692C348.679 468.093 346.426 473.07 341.951 476.736C337.444 480.214 331.228 482.01 323.193 482.01C315.418 482.01 309.211 479.914 304.478 475.803C299.756 471.487 296.929 465.282 296.087 457.068L295.995 456.17H295.092H236.306H235.277L235.307 457.199C235.742 472.232 239.886 485.14 247.774 495.876ZM278.31 145.312L304.704 66.4359L331.406 145.312H278.31Z" stroke="#FFDD33" stroke-opacity="0.3" stroke-width="2"/>
</svg>
