<svg width="1012" height="592" viewBox="0 0 1012 592" fill="none" xmlns="http://www.w3.org/2000/svg">
<mask id="path-1-outside-1" maskUnits="userSpaceOnUse" x="0.523682" y="0.391998" width="1011" height="592" fill="black">
<rect fill="white" x="0.523682" y="0.391998" width="1011" height="592"/>
<path d="M279.781 87.116C279.781 101.715 276.43 115.118 269.729 127.324C263.028 139.291 252.736 148.984 238.855 156.403C224.974 163.822 207.742 167.532 187.159 167.532H149.105V258H87.7161V5.98199H187.159C207.263 5.98199 224.256 9.45233 238.137 16.393C252.018 23.3337 262.429 32.907 269.37 45.113C276.311 57.319 279.781 71.32 279.781 87.116ZM182.492 118.708C194.219 118.708 202.955 115.956 208.699 110.451C214.443 104.946 217.315 97.168 217.315 87.116C217.315 77.064 214.443 69.2857 208.699 63.781C202.955 58.2763 194.219 55.524 182.492 55.524H149.105V118.708H182.492Z"/>
<path d="M430.928 260.513C407.234 260.513 385.455 255.008 365.59 243.999C345.965 232.99 330.289 217.672 318.561 198.047C307.073 178.182 301.329 155.924 301.329 131.273C301.329 106.622 307.073 84.4833 318.561 64.858C330.289 45.2327 345.965 29.9153 365.59 18.906C385.455 7.89667 407.234 2.392 430.928 2.392C454.622 2.392 476.282 7.89667 495.907 18.906C515.772 29.9153 531.329 45.2327 542.578 64.858C554.065 84.4833 559.81 106.622 559.81 131.273C559.81 155.924 554.065 178.182 542.578 198.047C531.089 217.672 515.533 232.99 495.907 243.999C476.282 255.008 454.622 260.513 430.928 260.513ZM430.928 204.509C451.033 204.509 467.068 197.808 479.034 184.405C491.241 171.002 497.344 153.292 497.344 131.273C497.344 109.015 491.241 91.3043 479.034 78.141C467.068 64.7383 451.033 58.037 430.928 58.037C410.585 58.037 394.31 64.6187 382.104 77.782C370.138 90.9453 364.154 108.776 364.154 131.273C364.154 153.531 370.138 171.361 382.104 184.764C394.31 197.927 410.585 204.509 430.928 204.509Z"/>
<path d="M722.484 258L670.07 162.865H655.351V258H593.962V5.98199H696.995C716.86 5.98199 733.733 9.45233 747.614 16.393C761.735 23.3337 772.266 32.907 779.206 45.113C786.147 57.0797 789.617 70.4823 789.617 85.321C789.617 102.074 784.831 117.033 775.257 130.196C765.923 143.359 752.042 152.693 733.613 158.198L791.771 258H722.484ZM655.351 119.426H693.405C704.654 119.426 713.031 116.674 718.535 111.169C724.279 105.664 727.151 97.886 727.151 87.834C727.151 78.2607 724.279 70.7217 718.535 65.217C713.031 59.7123 704.654 56.96 693.405 56.96H655.351V119.426Z"/>
<path d="M1009.45 5.98199V55.165H942.675V258H881.286V55.165H814.512V5.98199H1009.45Z"/>
<path d="M166.587 334.982V384.165H63.9127V437.297H140.739V485.044H63.9127V587H2.52368V334.982H166.587Z"/>
<path d="M318.04 589.513C294.346 589.513 272.566 584.008 252.702 572.999C233.076 561.99 217.4 546.672 205.673 527.047C194.185 507.182 188.441 484.924 188.441 460.273C188.441 435.622 194.185 413.483 205.673 393.858C217.4 374.233 233.076 358.915 252.702 347.906C272.566 336.897 294.346 331.392 318.04 331.392C341.734 331.392 363.393 336.897 383.019 347.906C402.883 358.915 418.44 374.233 429.689 393.858C441.177 413.483 446.921 435.622 446.921 460.273C446.921 484.924 441.177 507.182 429.689 527.047C418.201 546.672 402.644 561.99 383.019 572.999C363.393 584.008 341.734 589.513 318.04 589.513ZM318.04 533.509C338.144 533.509 354.179 526.808 366.146 513.405C378.352 500.002 384.455 482.292 384.455 460.273C384.455 438.015 378.352 420.304 366.146 407.141C354.179 393.738 338.144 387.037 318.04 387.037C297.697 387.037 281.422 393.619 269.216 406.782C257.249 419.945 251.266 437.776 251.266 460.273C251.266 482.531 257.249 500.361 269.216 513.764C281.422 526.927 297.697 533.509 318.04 533.509Z"/>
<path d="M542.463 539.612H622.878V587H481.073V334.982H542.463V539.612Z"/>
<path d="M713.548 334.982V587H652.159V334.982H713.548Z"/>
<path d="M877.224 589.513C853.53 589.513 831.751 584.008 811.886 572.999C792.261 561.99 776.585 546.672 764.857 527.047C753.369 507.182 747.625 484.924 747.625 460.273C747.625 435.622 753.369 413.483 764.857 393.858C776.585 374.233 792.261 358.915 811.886 347.906C831.751 336.897 853.53 331.392 877.224 331.392C900.918 331.392 922.578 336.897 942.203 347.906C962.068 358.915 977.625 374.233 988.873 393.858C1000.36 413.483 1006.11 435.622 1006.11 460.273C1006.11 484.924 1000.36 507.182 988.873 527.047C977.385 546.672 961.829 561.99 942.203 572.999C922.578 584.008 900.918 589.513 877.224 589.513ZM877.224 533.509C897.328 533.509 913.364 526.808 925.33 513.405C937.536 500.002 943.639 482.292 943.639 460.273C943.639 438.015 937.536 420.304 925.33 407.141C913.364 393.738 897.328 387.037 877.224 387.037C856.881 387.037 840.606 393.619 828.4 406.782C816.434 419.945 810.45 437.776 810.45 460.273C810.45 482.531 816.434 500.361 828.4 513.764C840.606 526.927 856.881 533.509 877.224 533.509Z"/>
</mask>
<path d="M279.781 87.116C279.781 101.715 276.43 115.118 269.729 127.324C263.028 139.291 252.736 148.984 238.855 156.403C224.974 163.822 207.742 167.532 187.159 167.532H149.105V258H87.7161V5.98199H187.159C207.263 5.98199 224.256 9.45233 238.137 16.393C252.018 23.3337 262.429 32.907 269.37 45.113C276.311 57.319 279.781 71.32 279.781 87.116ZM182.492 118.708C194.219 118.708 202.955 115.956 208.699 110.451C214.443 104.946 217.315 97.168 217.315 87.116C217.315 77.064 214.443 69.2857 208.699 63.781C202.955 58.2763 194.219 55.524 182.492 55.524H149.105V118.708H182.492Z" stroke="#FFDD33" stroke-opacity="0.3" stroke-width="4" mask="url(#path-1-outside-1)"/>
<path d="M430.928 260.513C407.234 260.513 385.455 255.008 365.59 243.999C345.965 232.99 330.289 217.672 318.561 198.047C307.073 178.182 301.329 155.924 301.329 131.273C301.329 106.622 307.073 84.4833 318.561 64.858C330.289 45.2327 345.965 29.9153 365.59 18.906C385.455 7.89667 407.234 2.392 430.928 2.392C454.622 2.392 476.282 7.89667 495.907 18.906C515.772 29.9153 531.329 45.2327 542.578 64.858C554.065 84.4833 559.81 106.622 559.81 131.273C559.81 155.924 554.065 178.182 542.578 198.047C531.089 217.672 515.533 232.99 495.907 243.999C476.282 255.008 454.622 260.513 430.928 260.513ZM430.928 204.509C451.033 204.509 467.068 197.808 479.034 184.405C491.241 171.002 497.344 153.292 497.344 131.273C497.344 109.015 491.241 91.3043 479.034 78.141C467.068 64.7383 451.033 58.037 430.928 58.037C410.585 58.037 394.31 64.6187 382.104 77.782C370.138 90.9453 364.154 108.776 364.154 131.273C364.154 153.531 370.138 171.361 382.104 184.764C394.31 197.927 410.585 204.509 430.928 204.509Z" stroke="#FFDD33" stroke-opacity="0.3" stroke-width="4" mask="url(#path-1-outside-1)"/>
<path d="M722.484 258L670.07 162.865H655.351V258H593.962V5.98199H696.995C716.86 5.98199 733.733 9.45233 747.614 16.393C761.735 23.3337 772.266 32.907 779.206 45.113C786.147 57.0797 789.617 70.4823 789.617 85.321C789.617 102.074 784.831 117.033 775.257 130.196C765.923 143.359 752.042 152.693 733.613 158.198L791.771 258H722.484ZM655.351 119.426H693.405C704.654 119.426 713.031 116.674 718.535 111.169C724.279 105.664 727.151 97.886 727.151 87.834C727.151 78.2607 724.279 70.7217 718.535 65.217C713.031 59.7123 704.654 56.96 693.405 56.96H655.351V119.426Z" stroke="#FFDD33" stroke-opacity="0.3" stroke-width="4" mask="url(#path-1-outside-1)"/>
<path d="M1009.45 5.98199V55.165H942.675V258H881.286V55.165H814.512V5.98199H1009.45Z" stroke="#FFDD33" stroke-opacity="0.3" stroke-width="4" mask="url(#path-1-outside-1)"/>
<path d="M166.587 334.982V384.165H63.9127V437.297H140.739V485.044H63.9127V587H2.52368V334.982H166.587Z" stroke="#FFDD33" stroke-opacity="0.3" stroke-width="4" mask="url(#path-1-outside-1)"/>
<path d="M318.04 589.513C294.346 589.513 272.566 584.008 252.702 572.999C233.076 561.99 217.4 546.672 205.673 527.047C194.185 507.182 188.441 484.924 188.441 460.273C188.441 435.622 194.185 413.483 205.673 393.858C217.4 374.233 233.076 358.915 252.702 347.906C272.566 336.897 294.346 331.392 318.04 331.392C341.734 331.392 363.393 336.897 383.019 347.906C402.883 358.915 418.44 374.233 429.689 393.858C441.177 413.483 446.921 435.622 446.921 460.273C446.921 484.924 441.177 507.182 429.689 527.047C418.201 546.672 402.644 561.99 383.019 572.999C363.393 584.008 341.734 589.513 318.04 589.513ZM318.04 533.509C338.144 533.509 354.179 526.808 366.146 513.405C378.352 500.002 384.455 482.292 384.455 460.273C384.455 438.015 378.352 420.304 366.146 407.141C354.179 393.738 338.144 387.037 318.04 387.037C297.697 387.037 281.422 393.619 269.216 406.782C257.249 419.945 251.266 437.776 251.266 460.273C251.266 482.531 257.249 500.361 269.216 513.764C281.422 526.927 297.697 533.509 318.04 533.509Z" stroke="#FFDD33" stroke-opacity="0.3" stroke-width="4" mask="url(#path-1-outside-1)"/>
<path d="M542.463 539.612H622.878V587H481.073V334.982H542.463V539.612Z" stroke="#FFDD33" stroke-opacity="0.3" stroke-width="4" mask="url(#path-1-outside-1)"/>
<path d="M713.548 334.982V587H652.159V334.982H713.548Z" stroke="#FFDD33" stroke-opacity="0.3" stroke-width="4" mask="url(#path-1-outside-1)"/>
<path d="M877.224 589.513C853.53 589.513 831.751 584.008 811.886 572.999C792.261 561.99 776.585 546.672 764.857 527.047C753.369 507.182 747.625 484.924 747.625 460.273C747.625 435.622 753.369 413.483 764.857 393.858C776.585 374.233 792.261 358.915 811.886 347.906C831.751 336.897 853.53 331.392 877.224 331.392C900.918 331.392 922.578 336.897 942.203 347.906C962.068 358.915 977.625 374.233 988.873 393.858C1000.36 413.483 1006.11 435.622 1006.11 460.273C1006.11 484.924 1000.36 507.182 988.873 527.047C977.385 546.672 961.829 561.99 942.203 572.999C922.578 584.008 900.918 589.513 877.224 589.513ZM877.224 533.509C897.328 533.509 913.364 526.808 925.33 513.405C937.536 500.002 943.639 482.292 943.639 460.273C943.639 438.015 937.536 420.304 925.33 407.141C913.364 393.738 897.328 387.037 877.224 387.037C856.881 387.037 840.606 393.619 828.4 406.782C816.434 419.945 810.45 437.776 810.45 460.273C810.45 482.531 816.434 500.361 828.4 513.764C840.606 526.927 856.881 533.509 877.224 533.509Z" stroke="#FFDD33" stroke-opacity="0.3" stroke-width="4" mask="url(#path-1-outside-1)"/>
</svg>
