<svg width="103" height="36" viewBox="0 0 103 36" fill="none" xmlns="http://www.w3.org/2000/svg">
<path d="M44.4463 27.5759H41.1619V16.6445C41.1619 14.5735 40.8457 13.0553 40.2107 12.0952C39.5758 11.1351 38.6116 10.6537 37.3182 10.6537C36.422 10.6537 35.5336 10.8785 34.6504 11.3255C33.7672 11.7725 32.9833 12.3756 32.2987 13.1347C31.6141 13.8938 31.1229 14.7719 30.825 15.7664V27.5759H27.5405V7.97178H30.5271V12.2063C31.0497 11.2832 31.7213 10.4818 32.5417 9.80735C33.3622 9.1329 34.295 8.6092 35.3402 8.23363C36.3854 7.85805 37.4802 7.67026 38.6247 7.67026C39.743 7.67026 40.6837 7.87656 41.4414 8.28917C42.1992 8.70178 42.7976 9.27572 43.2339 10.0137C43.6703 10.7516 43.9812 11.6191 44.1667 12.6189C44.3523 13.6187 44.4463 14.7057 44.4463 15.8801V27.5759Z" fill="white"/>
<path d="M57.3229 27.9541C56.0034 27.9541 54.791 27.6844 53.6831 27.1422C52.5752 26.5999 51.6241 25.8567 50.8271 24.9125C50.0302 23.9683 49.4161 22.8918 48.9798 21.683C48.5434 20.4743 48.3265 19.2153 48.3265 17.9061C48.3265 16.5202 48.5434 15.2109 48.9798 13.9784C49.4161 12.7459 50.038 11.6562 50.8454 10.7119C51.6528 9.76768 52.6039 9.02446 53.7014 8.48225C54.7962 7.94004 56.0165 7.67026 57.3595 7.67026C58.9769 7.67026 60.3879 8.067 61.5951 8.86047C62.8023 9.65395 63.8161 10.667 64.6366 11.9021V7.97178H67.5474V27.3855C67.5474 29.2422 67.1058 30.808 66.2226 32.0882C65.3395 33.3683 64.1453 34.339 62.6403 35.0029C61.1352 35.6667 57.6208 36 57.6208 36V33.4318C57.6208 33.4318 59.915 33.2175 60.9236 32.7891C61.9322 32.3606 62.7396 31.7046 63.3484 30.8212C63.9572 29.9378 64.2629 28.8323 64.2629 27.4992V24.0264C63.5418 25.2352 62.5514 26.1926 61.2972 26.8962C60.0404 27.6024 58.7156 27.9541 57.3229 27.9541ZM58.3289 25.2352C59.024 25.2352 59.6981 25.1109 60.3435 24.8569C60.9889 24.6057 61.5873 24.2724 62.136 23.8545C62.6821 23.4393 63.1446 22.9658 63.5156 22.4368C63.8893 21.9079 64.1375 21.3657 64.2629 20.8129V15.1474C63.9154 14.2402 63.4163 13.4415 62.7709 12.7485C62.1229 12.0555 61.3913 11.516 60.5682 11.1245C59.7478 10.7331 58.9012 10.54 58.031 10.54C57.0355 10.54 56.1471 10.7542 55.3632 11.1827C54.5793 11.6112 53.913 12.1851 53.3669 12.9019C52.8182 13.6187 52.3975 14.4201 52.097 15.3008C51.7992 16.1816 51.6502 17.0756 51.6502 17.9828C51.6502 18.9641 51.8253 19.8898 52.1728 20.76C52.5203 21.6301 52.9933 22.4025 53.5916 23.0822C54.19 23.7619 54.8981 24.2909 55.7186 24.6692C56.539 25.0447 57.4092 25.2352 58.3289 25.2352Z" fill="white"/>
<path d="M81.4693 27.9542C80.0008 27.9542 78.6629 27.6844 77.4584 27.1474C76.2512 26.6105 75.206 25.8726 74.3228 24.9363C73.4397 24 72.7551 22.9182 72.269 21.6936C71.783 20.469 71.54 19.1704 71.54 17.7924C71.54 15.9436 71.9633 14.2561 72.8099 12.73C73.6565 11.2065 74.8297 9.98192 76.3374 9.0562C77.8425 8.13048 79.5644 7.66762 81.5058 7.66762C83.4708 7.66762 85.1823 8.13577 86.6377 9.07472C88.0931 10.0137 89.2245 11.2383 90.0345 12.7512C90.8419 14.264 91.2469 15.896 91.2469 17.6495C91.2469 17.9008 91.2417 18.1441 91.2286 18.3795C91.2156 18.6176 91.1973 18.7974 91.1738 18.9244H75.0153C75.1146 20.194 75.4699 21.3207 76.0787 22.3046C76.6876 23.2885 77.4793 24.0608 78.4487 24.6189C79.4181 25.177 80.4633 25.46 81.5842 25.46C82.7784 25.46 83.9045 25.1585 84.9628 24.5528C86.021 23.9471 86.7474 23.1536 87.1446 22.1724L89.9796 22.9658C89.5563 23.9233 88.9292 24.7802 88.0957 25.534C87.2622 26.2905 86.2797 26.8803 85.1483 27.3088C84.0117 27.7399 82.7862 27.9542 81.4693 27.9542ZM74.9003 16.6207H88.1872C88.0879 15.3511 87.7273 14.2323 87.1054 13.2616C86.4835 12.2909 85.6866 11.5318 84.7172 10.9843C83.7478 10.4368 82.6764 10.1618 81.5085 10.1618C80.364 10.1618 79.3057 10.4368 78.3363 10.9843C77.3669 11.5318 76.5752 12.2909 75.9664 13.2616C75.3523 14.2323 74.9996 15.3511 74.9003 16.6207Z" fill="white"/>
<path d="M94.9782 0H98.2627V22.5797C98.2627 23.6667 98.4116 24.3386 98.7095 24.5898C99.0074 24.8437 99.368 24.968 99.7913 24.968C100.314 24.968 100.81 24.9125 101.283 24.7988C101.756 24.685 102.153 24.566 102.477 24.4391L103 27.158C102.451 27.3855 101.806 27.5733 101.059 27.724C100.311 27.8748 99.6528 27.9515 99.0805 27.9515C97.8106 27.9515 96.8099 27.5839 96.0756 26.8512C95.3414 26.1186 94.9756 25.0924 94.9756 23.7778V0H94.9782Z" fill="white"/>
<path d="M13.6971 0.756439H10.8594L0 27.5759H3.58236L6.56635 19.7179L7.57234 17.0756L12.2783 4.68414L16.9659 17.0756L17.9641 19.7179L20.9376 27.5759H24.52L13.6971 0.756439Z" fill="white"/>
<path d="M16.6733 24.4417H7.36072V27.1607H16.6733V24.4417Z" fill="#FFDD33"/>
</svg>
