<svg width="1241" height="589" viewBox="0 0 1241 589" fill="none" xmlns="http://www.w3.org/2000/svg">
<mask id="path-1-outside-1" maskUnits="userSpaceOnUse" x="0.744003" y="0.391998" width="1240" height="589" fill="black">
<rect fill="white" x="0.744003" y="0.391998" width="1240" height="589"/>
<path d="M177.141 213.484H83.083L68.005 258H3.744L94.93 5.98199H166.012L257.198 258H192.219L177.141 213.484ZM161.345 166.096L130.112 73.833L99.238 166.096H161.345Z"/>
<path d="M437.525 128.76C452.125 131.871 463.852 139.171 472.707 150.659C481.563 161.908 485.99 174.832 485.99 189.431C485.99 210.492 478.571 227.246 463.732 239.691C449.133 251.897 428.67 258 402.343 258H284.95V5.98199H398.394C424.003 5.98199 443.987 11.8457 458.347 23.573C472.947 35.3003 480.246 51.216 480.246 71.32C480.246 86.1587 476.297 98.4843 468.399 108.297C460.741 118.11 450.449 124.931 437.525 128.76ZM346.339 107.938H386.547C396.599 107.938 404.258 105.784 409.523 101.476C415.028 96.9287 417.78 90.347 417.78 81.731C417.78 73.115 415.028 66.5333 409.523 61.986C404.258 57.4387 396.599 55.165 386.547 55.165H346.339V107.938ZM391.573 208.458C401.865 208.458 409.763 206.184 415.267 201.637C421.011 196.85 423.883 190.029 423.883 181.174C423.883 172.319 420.892 165.378 414.908 160.352C409.164 155.326 401.147 152.813 390.855 152.813H346.339V208.458H391.573Z"/>
<path d="M640.784 260.513C617.09 260.513 595.311 255.008 575.446 243.999C555.821 232.99 540.144 217.672 528.417 198.047C516.929 178.182 511.185 155.924 511.185 131.273C511.185 106.622 516.929 84.4833 528.417 64.858C540.144 45.2327 555.821 29.9153 575.446 18.906C595.311 7.89667 617.09 2.392 640.784 2.392C664.478 2.392 686.138 7.89667 705.763 18.906C725.628 29.9153 741.184 45.2327 752.433 64.858C763.921 84.4833 769.665 106.622 769.665 131.273C769.665 155.924 763.921 178.182 752.433 198.047C740.945 217.672 725.388 232.99 705.763 243.999C686.138 255.008 664.478 260.513 640.784 260.513ZM640.784 204.509C660.888 204.509 676.923 197.808 688.89 184.405C701.096 171.002 707.199 153.292 707.199 131.273C707.199 109.015 701.096 91.3043 688.89 78.141C676.923 64.7383 660.888 58.037 640.784 58.037C620.441 58.037 604.166 64.6187 591.96 77.782C579.993 90.9453 574.01 108.776 574.01 131.273C574.01 153.531 579.993 171.361 591.96 184.764C604.166 197.927 620.441 204.509 640.784 204.509Z"/>
<path d="M864.13 5.98199V156.762C864.13 171.84 867.839 183.448 875.259 191.585C882.678 199.722 893.568 203.791 907.928 203.791C922.288 203.791 933.297 199.722 940.956 191.585C948.614 183.448 952.444 171.84 952.444 156.762V5.98199H1013.83V156.403C1013.83 178.9 1009.05 197.927 999.473 213.484C989.899 229.041 976.975 240.768 960.701 248.666C944.665 256.564 926.715 260.513 906.851 260.513C886.986 260.513 869.156 256.684 853.36 249.025C837.803 241.127 825.477 229.4 816.383 213.843C807.288 198.047 802.741 178.9 802.741 156.403V5.98199H864.13Z"/>
<path d="M1238.24 5.98199V55.165H1171.46V258H1110.07V55.165H1043.3V5.98199H1238.24Z"/>
<path d="M305.663 334.982V587H244.274V435.861L187.911 587H138.369L81.647 435.502V587H20.258V334.982H92.776L163.499 509.456L233.504 334.982H305.663Z"/>
<path d="M411.198 384.165V435.143H493.409V482.531H411.198V537.817H504.179V587H349.809V334.982H504.179V384.165H411.198Z"/>
</mask>
<path d="M177.141 213.484H83.083L68.005 258H3.744L94.93 5.98199H166.012L257.198 258H192.219L177.141 213.484ZM161.345 166.096L130.112 73.833L99.238 166.096H161.345Z" stroke="#FFDD33" stroke-opacity="0.3" stroke-width="4" mask="url(#path-1-outside-1)"/>
<path d="M437.525 128.76C452.125 131.871 463.852 139.171 472.707 150.659C481.563 161.908 485.99 174.832 485.99 189.431C485.99 210.492 478.571 227.246 463.732 239.691C449.133 251.897 428.67 258 402.343 258H284.95V5.98199H398.394C424.003 5.98199 443.987 11.8457 458.347 23.573C472.947 35.3003 480.246 51.216 480.246 71.32C480.246 86.1587 476.297 98.4843 468.399 108.297C460.741 118.11 450.449 124.931 437.525 128.76ZM346.339 107.938H386.547C396.599 107.938 404.258 105.784 409.523 101.476C415.028 96.9287 417.78 90.347 417.78 81.731C417.78 73.115 415.028 66.5333 409.523 61.986C404.258 57.4387 396.599 55.165 386.547 55.165H346.339V107.938ZM391.573 208.458C401.865 208.458 409.763 206.184 415.267 201.637C421.011 196.85 423.883 190.029 423.883 181.174C423.883 172.319 420.892 165.378 414.908 160.352C409.164 155.326 401.147 152.813 390.855 152.813H346.339V208.458H391.573Z" stroke="#FFDD33" stroke-opacity="0.3" stroke-width="4" mask="url(#path-1-outside-1)"/>
<path d="M640.784 260.513C617.09 260.513 595.311 255.008 575.446 243.999C555.821 232.99 540.144 217.672 528.417 198.047C516.929 178.182 511.185 155.924 511.185 131.273C511.185 106.622 516.929 84.4833 528.417 64.858C540.144 45.2327 555.821 29.9153 575.446 18.906C595.311 7.89667 617.09 2.392 640.784 2.392C664.478 2.392 686.138 7.89667 705.763 18.906C725.628 29.9153 741.184 45.2327 752.433 64.858C763.921 84.4833 769.665 106.622 769.665 131.273C769.665 155.924 763.921 178.182 752.433 198.047C740.945 217.672 725.388 232.99 705.763 243.999C686.138 255.008 664.478 260.513 640.784 260.513ZM640.784 204.509C660.888 204.509 676.923 197.808 688.89 184.405C701.096 171.002 707.199 153.292 707.199 131.273C707.199 109.015 701.096 91.3043 688.89 78.141C676.923 64.7383 660.888 58.037 640.784 58.037C620.441 58.037 604.166 64.6187 591.96 77.782C579.993 90.9453 574.01 108.776 574.01 131.273C574.01 153.531 579.993 171.361 591.96 184.764C604.166 197.927 620.441 204.509 640.784 204.509Z" stroke="#FFDD33" stroke-opacity="0.3" stroke-width="4" mask="url(#path-1-outside-1)"/>
<path d="M864.13 5.98199V156.762C864.13 171.84 867.839 183.448 875.259 191.585C882.678 199.722 893.568 203.791 907.928 203.791C922.288 203.791 933.297 199.722 940.956 191.585C948.614 183.448 952.444 171.84 952.444 156.762V5.98199H1013.83V156.403C1013.83 178.9 1009.05 197.927 999.473 213.484C989.899 229.041 976.975 240.768 960.701 248.666C944.665 256.564 926.715 260.513 906.851 260.513C886.986 260.513 869.156 256.684 853.36 249.025C837.803 241.127 825.477 229.4 816.383 213.843C807.288 198.047 802.741 178.9 802.741 156.403V5.98199H864.13Z" stroke="#FFDD33" stroke-opacity="0.3" stroke-width="4" mask="url(#path-1-outside-1)"/>
<path d="M1238.24 5.98199V55.165H1171.46V258H1110.07V55.165H1043.3V5.98199H1238.24Z" stroke="#FFDD33" stroke-opacity="0.3" stroke-width="4" mask="url(#path-1-outside-1)"/>
<path d="M305.663 334.982V587H244.274V435.861L187.911 587H138.369L81.647 435.502V587H20.258V334.982H92.776L163.499 509.456L233.504 334.982H305.663Z" stroke="#FFDD33" stroke-opacity="0.3" stroke-width="4" mask="url(#path-1-outside-1)"/>
<path d="M411.198 384.165V435.143H493.409V482.531H411.198V537.817H504.179V587H349.809V334.982H504.179V384.165H411.198Z" stroke="#FFDD33" stroke-opacity="0.3" stroke-width="4" mask="url(#path-1-outside-1)"/>
</svg>
